<?xml version='1.0' encoding='utf-8'?>
<svg xmlns="http://www.w3.org/2000/svg" width="81.28mm" height="128.5mm" viewBox="0 0 81.28 128.5">
  <defs>
    <!-- CRT HOUSING — dark charcoal with subtle warmth -->
    <linearGradient id="crtHousing" x1="0" y1="0" x2="0" y2="1">
      <stop offset="0%" stop-color="#1E2128" />
      <stop offset="40%" stop-color="#191C22" />
      <stop offset="100%" stop-color="#14171C" />
    </linearGradient>

    <!-- CRT GLASS — deep black with cold blue tint -->
    <linearGradient id="crtGlass" x1="0" y1="0" x2="0" y2="1">
      <stop offset="0%" stop-color="#111520" />
      <stop offset="100%" stop-color="#080A0F" />
    </linearGradient>

    <!-- BEZEL RING gradient — suggests depth around display -->
    <linearGradient id="bezelRing" x1="0" y1="0" x2="0" y2="1">
      <stop offset="0%" stop-color="#2A2E38" />
      <stop offset="100%" stop-color="#0C0E12" />
    </linearGradient>

    <!-- AMBER PHOSPHOR gradient for accent bars -->
    <linearGradient id="amberPhosphor" x1="0" y1="0" x2="1" y2="0">
      <stop offset="0%" stop-color="#A07520" />
      <stop offset="50%" stop-color="#D4A030" />
      <stop offset="100%" stop-color="#A07520" />
    </linearGradient>

    <!-- SCAN LINE TEXTURE — full-panel horizontal lines -->
    <pattern id="scanLines" patternUnits="userSpaceOnUse" width="81.28" height="1.2">
      <rect width="81.28" height="0.6" fill="#C48B2F" opacity="0.025" />
    </pattern>

    <!-- SHADOW MASK — RGB phosphor dots for CRT display area -->
    <pattern id="shadowMask" patternUnits="userSpaceOnUse" width="1.5" height="1.2">
      <circle cx="0.25" cy="0.6" r="0.15" fill="#FF4444" opacity="0.035" />
      <circle cx="0.75" cy="0.6" r="0.15" fill="#44FF44" opacity="0.035" />
      <circle cx="1.25" cy="0.6" r="0.15" fill="#4444FF" opacity="0.035" />
    </pattern>

    <!-- PCB FR4 SUBSTRATE — dark green fiberglass -->
    <linearGradient id="pcbSubstrate" x1="0" y1="0" x2="0" y2="1">
      <stop offset="0%" stop-color="#1A3024" />
      <stop offset="50%" stop-color="#162A1F" />
      <stop offset="100%" stop-color="#122218" />
    </linearGradient>

    <!-- PCB fiberglass weave texture -->
    <pattern id="pcbWeave" patternUnits="userSpaceOnUse" width="2.0" height="2.0">
      <rect width="2.0" height="2.0" fill="none" />
      <line x1="0" y1="0" x2="2.0" y2="0" stroke="#1E3828" stroke-width="0.15" opacity="0.4" />
      <line x1="0" y1="1.0" x2="2.0" y2="1.0" stroke="#1E3828" stroke-width="0.15" opacity="0.4" />
      <line x1="0" y1="0" x2="0" y2="2.0" stroke="#1E3828" stroke-width="0.15" opacity="0.3" />
      <line x1="1.0" y1="0" x2="1.0" y2="2.0" stroke="#1E3828" stroke-width="0.15" opacity="0.3" />
    </pattern>

    <!-- Solder mask slight sheen -->
    <linearGradient id="pcbSheen" x1="0" y1="0" x2="1" y2="1">
      <stop offset="0%" stop-color="#FFFFFF" stop-opacity="0.02" />
      <stop offset="50%" stop-color="#FFFFFF" stop-opacity="0.04" />
      <stop offset="100%" stop-color="#FFFFFF" stop-opacity="0.01" />
    </linearGradient>
  </defs>


  <!-- ═══════════════════════════════════════════════════════════ -->
  <!-- BACKGROUND: CRT Monitor Housing (top half)                 -->
  <!-- ═══════════════════════════════════════════════════════════ -->
  <rect width="81.28" height="128.5" fill="url(#crtHousing)" />
  <rect width="81.28" height="128.5" fill="url(#scanLines)" />

  <!-- Panel edge shadows -->
  <line x1="0.35" y1="0" x2="0.35" y2="128.5" stroke="#0A0C10" stroke-width="0.5" />
  <line x1="80.93" y1="0" x2="80.93" y2="128.5" stroke="#0A0C10" stroke-width="0.5" />
  <line x1="0.9" y1="2" x2="0.9" y2="126.5" stroke="#252830" stroke-width="0.15" opacity="0.5" />
  <line x1="80.38" y1="2" x2="80.38" y2="126.5" stroke="#252830" stroke-width="0.15" opacity="0.5" />


  <!-- ═══════════════════════════════════════════════════════════ -->
  <!-- TOP ACCENT BAR                                              -->
  <!-- ═══════════════════════════════════════════════════════════ -->
  <rect x="0" y="0" width="81.28" height="1.6" fill="url(#amberPhosphor)" />
  <rect x="5" y="1.6" width="71.28" height="2.5" fill="#C48B2F" opacity="0.05" />


  <!-- ═══════════════════════════════════════════════════════════ -->
  <!-- MODULE TITLE: JAMPG                                         -->
  <!-- Level 1: 5.8mm bold, wide tracking, phosphor amber          -->
  <!-- ═══════════════════════════════════════════════════════════ -->
  <ellipse cx="40.64" cy="8.2" rx="18" ry="3.0" fill="#C48B2F" opacity="0.05" />

  <!-- JAMPG title — DejaVu Sans Mono outlined paths -->
  <g id="title-jampg" opacity="0.85">
    <path d="M109 74V416Q195 328 292.5 282.0Q390 236 489 236Q605 236 659.0 294.0Q713 352 713 479V1233H352V1493H1008V479Q1008 206 893.5 88.5Q779 -29 516 -29Q421 -29 317.5 -3.0Q214 23 109 74Z" transform="translate(30.114,10.500) scale(0.002441,-0.002441)" fill="#C48B2F" />
    <path d="M616 1223 477 612H756ZM436 1493H797L1200 0H905L813 369H418L328 0H33Z" transform="translate(34.625,10.500) scale(0.002441,-0.002441)" fill="#C48B2F" />
    <path d="M86 1493H438L616 838L793 1493H1147V0H893V1196L735 543H500L340 1196V0H86Z" transform="translate(39.135,10.500) scale(0.002441,-0.002441)" fill="#C48B2F" />
    <path d="M457 1245V807H578Q723 807 781.5 856.0Q840 905 840 1026Q840 1147 781.5 1196.0Q723 1245 578 1245ZM162 1493H567Q876 1493 1011.5 1383.0Q1147 1273 1147 1026Q1147 779 1011.5 669.0Q876 559 567 559H457V0H162Z" transform="translate(43.645,10.500) scale(0.002441,-0.002441)" fill="#C48B2F" />
    <path d="M872 270V555H670V803H1130V119Q1045 46 942.5 8.5Q840 -29 723 -29Q433 -29 275.0 172.5Q117 374 117 745Q117 1122 276.5 1321.0Q436 1520 737 1520Q827 1520 914.0 1494.5Q1001 1469 1077 1421V1094Q1015 1174 934.5 1214.5Q854 1255 758 1255Q590 1255 507.0 1128.5Q424 1002 424 745Q424 496 504.0 366.0Q584 236 737 236Q783 236 817.0 244.5Q851 253 872 270Z" transform="translate(48.155,10.500) scale(0.002441,-0.002441)" fill="#C48B2F" />
  </g>

  <!-- Subtitle: PIXELS AS RHYTHM — moved up from y=15.3 to y=13.0 so it sits above CRT glass -->
  <g id="subtitle" opacity="0.55">
    <path d="M399 1327V766H633Q773 766 851.5 840.0Q930 914 930 1047Q930 1180 852.0 1253.5Q774 1327 633 1327ZM197 1493H633Q883 1493 1012.0 1379.5Q1141 1266 1141 1047Q1141 826 1012.5 713.0Q884 600 633 600H399V0H197Z" transform="translate(28.434,13.000) scale(0.000781,-0.000781)" fill="#7A6535" />
    <path d="M201 1493H1030V1323H717V170H1030V0H201V170H514V1323H201Z" transform="translate(29.997,13.000) scale(0.000781,-0.000781)" fill="#7A6535" />
    <path d="M86 1493H303L631 930L965 1493H1182L735 791L1214 0H997L631 643L236 0H18L518 791Z" transform="translate(31.560,13.000) scale(0.000781,-0.000781)" fill="#7A6535" />
    <path d="M197 1493H1083V1323H399V881H1053V711H399V170H1102V0H197Z" transform="translate(33.124,13.000) scale(0.000781,-0.000781)" fill="#7A6535" />
    <path d="M215 1493H418V170H1139V0H215Z" transform="translate(34.687,13.000) scale(0.000781,-0.000781)" fill="#7A6535" />
    <path d="M1012 1442V1237Q920 1296 827.5 1326.0Q735 1356 641 1356Q498 1356 415.0 1289.5Q332 1223 332 1110Q332 1011 386.5 959.0Q441 907 590 872L696 848Q906 799 1002.0 694.0Q1098 589 1098 408Q1098 195 966.0 83.0Q834 -29 582 -29Q477 -29 371.0 -6.5Q265 16 158 61V276Q273 203 375.5 169.0Q478 135 582 135Q735 135 820.0 203.5Q905 272 905 395Q905 507 846.5 566.0Q788 625 643 657L535 682Q327 729 233.0 824.0Q139 919 139 1079Q139 1279 273.5 1399.5Q408 1520 631 1520Q717 1520 812.0 1500.5Q907 1481 1012 1442Z" transform="translate(36.250,13.000) scale(0.000781,-0.000781)" fill="#7A6535" />
    <path d="M616 1315 403 551H829ZM494 1493H739L1196 0H987L877 389H354L246 0H37Z" transform="translate(39.377,13.000) scale(0.000781,-0.000781)" fill="#7A6535" />
    <path d="M1012 1442V1237Q920 1296 827.5 1326.0Q735 1356 641 1356Q498 1356 415.0 1289.5Q332 1223 332 1110Q332 1011 386.5 959.0Q441 907 590 872L696 848Q906 799 1002.0 694.0Q1098 589 1098 408Q1098 195 966.0 83.0Q834 -29 582 -29Q477 -29 371.0 -6.5Q265 16 158 61V276Q273 203 375.5 169.0Q478 135 582 135Q735 135 820.0 203.5Q905 272 905 395Q905 507 846.5 566.0Q788 625 643 657L535 682Q327 729 233.0 824.0Q139 919 139 1079Q139 1279 273.5 1399.5Q408 1520 631 1520Q717 1520 812.0 1500.5Q907 1481 1012 1442Z" transform="translate(40.940,13.000) scale(0.000781,-0.000781)" fill="#7A6535" />
    <path d="M760 705Q838 685 893.0 629.5Q948 574 1030 408L1233 0H1016L838 377Q761 538 699.5 584.5Q638 631 539 631H346V0H143V1493H559Q805 1493 936.0 1382.0Q1067 1271 1067 1061Q1067 913 986.5 819.5Q906 726 760 705ZM346 1327V797H567Q712 797 783.0 862.0Q854 927 854 1061Q854 1190 778.5 1258.5Q703 1327 559 1327Z" transform="translate(44.067,13.000) scale(0.000781,-0.000781)" fill="#7A6535" />
    <path d="M137 1493H340V881H893V1493H1096V0H893V711H340V0H137Z" transform="translate(45.630,13.000) scale(0.000781,-0.000781)" fill="#7A6535" />
    <path d="M37 1493H252L616 834L979 1493H1196L717 670V0H514V670Z" transform="translate(47.193,13.000) scale(0.000781,-0.000781)" fill="#7A6535" />
    <path d="M47 1493H1186V1323H719V0H516V1323H47Z" transform="translate(48.756,13.000) scale(0.000781,-0.000781)" fill="#7A6535" />
    <path d="M137 1493H340V881H893V1493H1096V0H893V711H340V0H137Z" transform="translate(50.320,13.000) scale(0.000781,-0.000781)" fill="#7A6535" />
    <path d="M86 1493H356L614 733L874 1493H1145V0H958V1319L692 532H539L272 1319V0H86Z" transform="translate(51.883,13.000) scale(0.000781,-0.000781)" fill="#7A6535" />
  </g>

  <!-- Power LED (top-right) -->
  <circle cx="74" cy="5.5" r="1.2" fill="#0E1015" />
  <circle cx="74" cy="5.5" r="0.8" fill="#C48B2F" opacity="0.6" />
  <circle cx="74" cy="5.5" r="2.5" fill="#C48B2F" opacity="0.04" />


  <!-- ═══════════════════════════════════════════════════════════ -->
  <!-- CRT DISPLAY BEZEL                                           -->
  <!-- ═══════════════════════════════════════════════════════════ -->
  <rect x="2.5" y="19" width="76.28" height="43" rx="2.5" ry="2.5" fill="url(#bezelRing)" />
  <rect x="3.2" y="19.7" width="74.88" height="41.6" rx="2.0" ry="2.0" fill="#0D1018" />

  <!-- CRT glass (NanoVG display at 4,14 73.28x40) -->
  <rect x="4" y="14" width="73.28" height="40" rx="1.5" ry="1.5" fill="url(#crtGlass)" />
  <rect x="4" y="14" width="73.28" height="40" rx="1.5" ry="1.5" fill="url(#shadowMask)" />
  <ellipse cx="25" cy="22" rx="20" ry="8" fill="#FFFFFF" opacity="0.015" />
  <rect x="4" y="14" width="73.28" height="40" rx="1.5" ry="1.5" fill="none" stroke="#000000" stroke-width="3" opacity="0.15" />


  <!-- ═══════════════════════════════════════════════════════════ -->
  <!-- TRANSITION: Housing → PCB (screw/mount line)                -->
  <!-- ═══════════════════════════════════════════════════════════ -->
  <line x1="2" y1="56.5" x2="79.28" y2="56.5" stroke="#0A0C10" stroke-width="0.6" />
  <line x1="2" y1="57.0" x2="79.28" y2="57.0" stroke="#2A3428" stroke-width="0.3" opacity="0.5" />

  <!-- RGB voice labels — Level 2 section headers, bold, with glow halos -->
  <circle cx="30.64" cy="57.0" r="3.0" fill="#C44B4F" opacity="0.06" />
  <g>
    <path d="M807 705Q851 696 883.5 663.5Q916 631 963 537L1233 0H909L729 377Q721 393 708 421Q629 590 522 590H428V0H133V1493H559Q847 1493 972.5 1391.0Q1098 1289 1098 1059Q1098 905 1023.0 814.0Q948 723 807 705ZM428 1245V838H567Q688 838 740.5 885.5Q793 933 793 1042Q793 1151 741.0 1198.0Q689 1245 567 1245Z" transform="translate(29.887,58.200) scale(0.001221,-0.001221)" fill="#C44B4F" />
  </g>
  <circle cx="40.64" cy="57.0" r="3.0" fill="#4B9E5B" opacity="0.06" />
  <g>
    <path d="M872 270V555H670V803H1130V119Q1045 46 942.5 8.5Q840 -29 723 -29Q433 -29 275.0 172.5Q117 374 117 745Q117 1122 276.5 1321.0Q436 1520 737 1520Q827 1520 914.0 1494.5Q1001 1469 1077 1421V1094Q1015 1174 934.5 1214.5Q854 1255 758 1255Q590 1255 507.0 1128.5Q424 1002 424 745Q424 496 504.0 366.0Q584 236 737 236Q783 236 817.0 244.5Q851 253 872 270Z" transform="translate(39.887,58.200) scale(0.001221,-0.001221)" fill="#4B9E5B" />
  </g>
  <circle cx="50.64" cy="57.0" r="3.0" fill="#4B6EC4" opacity="0.06" />
  <g>
    <path d="M410 678V236H606Q747 236 803.5 284.0Q860 332 860 451Q860 572 801.0 625.0Q742 678 606 678ZM410 1260V913H606Q718 913 765.5 953.0Q813 993 813 1085Q813 1177 764.5 1218.5Q716 1260 606 1260ZM125 1495H606Q855 1495 980.5 1400.5Q1106 1306 1106 1118Q1106 974 1032.0 893.0Q958 812 815 799Q986 782 1072.5 684.0Q1159 586 1159 410Q1159 194 1029.0 97.0Q899 0 606 0H125Z" transform="translate(49.887,58.200) scale(0.001221,-0.001221)" fill="#4B6EC4" />
  </g>


  <!-- ═══════════════════════════════════════════════════════════ -->
  <!-- PCB CIRCUIT BOARD — exposed below CRT                       -->
  <!-- FR4 substrate, copper traces, solder pads, silkscreen       -->
  <!-- Covers y=58 to y=126                                        -->
  <!-- ═══════════════════════════════════════════════════════════ -->

  <!-- PCB base: dark green FR4 -->
  <rect x="1.5" y="58" width="78.28" height="68" rx="0.5" ry="0.5" fill="url(#pcbSubstrate)" />

  <!-- Fiberglass weave texture -->
  <rect x="1.5" y="58" width="78.28" height="68" rx="0.5" ry="0.5" fill="url(#pcbWeave)" />

  <!-- Solder mask sheen -->
  <rect x="1.5" y="58" width="78.28" height="68" rx="0.5" ry="0.5" fill="url(#pcbSheen)" />

  <!-- PCB edge copper strip (ground plane visible at board edge) -->
  <rect x="1.5" y="58" width="78.28" height="0.4" fill="#8B6914" opacity="0.3" />
  <rect x="1.5" y="125.6" width="78.28" height="0.4" fill="#8B6914" opacity="0.3" />


  <!-- ── COPPER TRACES ──────────────────────────────────────── -->
  <!-- Main power/ground bus runs horizontally -->
  <g stroke="#8B6914" fill="none" opacity="0.25" stroke-linecap="round" stroke-linejoin="round">
    <!-- Power rails (thick) -->
    <line x1="3" y1="60" x2="78" y2="60" stroke-width="0.8" />
    <line x1="3" y1="124" x2="78" y2="124" stroke-width="0.8" />

    <!-- Vertical bus left side (connects CLK/RST inputs up to knobs) -->
    <path d="M12,115.5 L12,102 L12,90 L12,78 L12,66" stroke-width="0.5" />

    <!-- Vertical bus right side (connects gate outputs to thresh knob) -->
    <path d="M69.28,118 L69.28,108 L69.28,98 L69.28,82 L69.28,66" stroke-width="0.5" />

    <!-- Horizontal trace: Red level knob to Red CV input -->
    <path d="M12,66 L18,66 L18,76 L25.5,76 L25.5,82" stroke-width="0.35" />

    <!-- Horizontal trace: Green level knob to Green CV input -->
    <path d="M12,78 L20,78 L20,79 L37.5,79 L37.5,82" stroke-width="0.35" />

    <!-- Horizontal trace: Blue level knob to Blue CV input -->
    <path d="M12,90 L18,90 L18,86 L50.64,86 L50.64,82" stroke-width="0.35" />

    <!-- Center traces: LOAD/RST buttons to logic -->
    <path d="M32.64,66 L32.64,72 L40.64,72 L40.64,75" stroke-width="0.35" />
    <path d="M48.64,66 L48.64,72 L52,72 L52,80" stroke-width="0.35" />

    <!-- Diagonal trace: Thresh to gate outputs -->
    <path d="M69.28,66 L72,66 L72,90 L69.28,90" stroke-width="0.35" />

    <!-- CV output traces -->
    <path d="M57,98 L57,92 L60,92 L60,66" stroke-width="0.35" />
    <path d="M57,108 L62,108 L62,100" stroke-width="0.35" />
    <path d="M57,118 L62,118 L62,112" stroke-width="0.35" />

    <!-- Position/trigger output traces — updated for new positions -->
    <path d="M36,110 L36,105 L40,105 L40,100" stroke-width="0.3" />
    <path d="M45,110 L45,105 L48,105 L48,100" stroke-width="0.3" />
    <path d="M36,120 L32,120 L32,114 L24,114" stroke-width="0.3" />
    <path d="M45,120 L50,120 L50,122 L57,122" stroke-width="0.3" />

    <!-- Diagonal flourish traces (decorative, suggests complexity) -->
    <path d="M5,62 L10,67 L10,75 L8,77" stroke-width="0.25" />
    <path d="M75,62 L72,65 L74,70 L76,72" stroke-width="0.25" />
    <path d="M20,120 L26,120 L30,116" stroke-width="0.25" />
    <path d="M52,120 L58,120 L62,116 L66,116" stroke-width="0.25" />

    <!-- Short stubs to nowhere (realistic dead-end test points) -->
    <line x1="8" y1="100" x2="8" y2="104" stroke-width="0.2" />
    <line x1="76" y1="96" x2="76" y2="100" stroke-width="0.2" />
    <line x1="40" y1="120" x2="40" y2="124" stroke-width="0.2" />
  </g>


  <!-- ── SOLDER PADS ────────────────────────────────────────── -->
  <!-- Gold annular rings at each component mount point           -->
  <g fill="none" stroke="#B8860B" stroke-width="0.4" opacity="0.35">
    <!-- Level knob pads (left column) -->
    <circle cx="12.0" cy="66"  r="3.2" />
    <circle cx="12.0" cy="78"  r="3.2" />
    <circle cx="12.0" cy="90"  r="3.2" />

    <!-- Thresh + Scan knob pads (right column, slightly bigger) -->
    <circle cx="69.28" cy="66" r="3.8" />
    <circle cx="69.28" cy="82" r="3.8" />

    <!-- Button pads (center) -->
    <circle cx="32.64" cy="66" r="2.2" />
    <circle cx="48.64" cy="66" r="2.2" />

    <!-- CV input pads (center row, below level knobs) -->
    <circle cx="25.5"  cy="82" r="2.8" />
    <circle cx="37.5"  cy="82" r="2.8" />
    <circle cx="50.64" cy="82" r="2.8" />

    <!-- Clock/Reset input pads -->
    <circle cx="12.0" cy="115.5" r="2.8" />
    <circle cx="24.0" cy="115.5" r="2.8" />

    <!-- Gate output pads -->
    <circle cx="69.28" cy="98"  r="2.8" />
    <circle cx="69.28" cy="108" r="2.8" />
    <circle cx="69.28" cy="118" r="2.8" />

    <!-- CV output pads -->
    <circle cx="57.0" cy="98"  r="2.8" />
    <circle cx="57.0" cy="108" r="2.8" />
    <circle cx="57.0" cy="118" r="2.8" />

    <!-- Position/trigger pads — moved to y=110 for 12mm gap from CV inputs -->
    <circle cx="36.0" cy="110" r="2.5" />
    <circle cx="45.0" cy="110" r="2.5" />
    <circle cx="36.0" cy="120" r="2.5" />
    <circle cx="45.0" cy="120" r="2.5" />
  </g>

  <!-- Filled solder pad centers (tin/gold) -->
  <g fill="#B8860B" opacity="0.12">
    <circle cx="12.0" cy="66"  r="1.5" />
    <circle cx="12.0" cy="78"  r="1.5" />
    <circle cx="12.0" cy="90"  r="1.5" />
    <circle cx="69.28" cy="66" r="1.8" />
    <circle cx="69.28" cy="82" r="1.8" />
    <circle cx="32.64" cy="66" r="1.0" />
    <circle cx="48.64" cy="66" r="1.0" />
    <circle cx="25.5"  cy="82" r="1.3" />
    <circle cx="37.5"  cy="82" r="1.3" />
    <circle cx="50.64" cy="82" r="1.3" />
    <circle cx="12.0" cy="115.5" r="1.3" />
    <circle cx="24.0" cy="115.5" r="1.3" />
    <circle cx="69.28" cy="98"  r="1.3" />
    <circle cx="69.28" cy="108" r="1.3" />
    <circle cx="69.28" cy="118" r="1.3" />
    <circle cx="57.0" cy="98"  r="1.3" />
    <circle cx="57.0" cy="108" r="1.3" />
    <circle cx="57.0" cy="118" r="1.3" />
    <circle cx="36.0" cy="110" r="1.1" />
    <circle cx="45.0" cy="110" r="1.1" />
    <circle cx="36.0" cy="120" r="1.1" />
    <circle cx="45.0" cy="120" r="1.1" />
  </g>


  <!-- ── VIA HOLES (small plated through-holes) ─────────────── -->
  <g fill="#0A0F08" stroke="#8B6914" stroke-width="0.2" opacity="0.4">
    <circle cx="16" cy="70" r="0.6" />
    <circle cx="16" cy="82" r="0.6" />
    <circle cx="16" cy="94" r="0.6" />
    <circle cx="28" cy="70" r="0.6" />
    <circle cx="55" cy="70" r="0.6" />
    <circle cx="65" cy="75" r="0.6" />
    <circle cx="65" cy="90" r="0.6" />
    <circle cx="40" cy="95" r="0.6" />
    <circle cx="50" cy="95" r="0.6" />
    <circle cx="8"  cy="108" r="0.6" />
    <circle cx="76" cy="108" r="0.6" />
    <circle cx="30" cy="122" r="0.6" />
    <circle cx="52" cy="122" r="0.6" />
  </g>


  <!-- ── SILKSCREEN LABELS (white on PCB) ───────────────────── -->
  <!-- These replace the old phosphor-colored labels in the PCB area -->

  <!-- Control labels — Level 2 silkscreen, 2.0mm, generous tracking -->
  <g opacity="0.6">
    <path d="M215 1493H418V170H1139V0H215Z" transform="translate(7.390,61.800) scale(0.000977,-0.000977)" fill="#C8D8C0" />
    <path d="M197 1493H1083V1323H399V881H1053V711H399V170H1102V0H197Z" transform="translate(9.394,61.800) scale(0.000977,-0.000977)" fill="#C8D8C0" />
    <path d="M616 170 967 1493H1176L739 0H494L57 1493H266Z" transform="translate(11.398,61.800) scale(0.000977,-0.000977)" fill="#C8D8C0" />
    <path d="M197 1493H1083V1323H399V881H1053V711H399V170H1102V0H197Z" transform="translate(13.402,61.800) scale(0.000977,-0.000977)" fill="#C8D8C0" />
    <path d="M215 1493H418V170H1139V0H215Z" transform="translate(15.406,61.800) scale(0.000977,-0.000977)" fill="#C8D8C0" />
  </g>
    <g opacity="0.6">
    <path d="M47 1493H1186V1323H719V0H516V1323H47Z" transform="translate(65.029,60.000) scale(0.000879,-0.000879)" fill="#C8D8C0" />
    <path d="M137 1493H340V881H893V1493H1096V0H893V711H340V0H137Z" transform="translate(66.513,60.000) scale(0.000879,-0.000879)" fill="#C8D8C0" />
    <path d="M760 705Q838 685 893.0 629.5Q948 574 1030 408L1233 0H1016L838 377Q761 538 699.5 584.5Q638 631 539 631H346V0H143V1493H559Q805 1493 936.0 1382.0Q1067 1271 1067 1061Q1067 913 986.5 819.5Q906 726 760 705ZM346 1327V797H567Q712 797 783.0 862.0Q854 927 854 1061Q854 1190 778.5 1258.5Q703 1327 559 1327Z" transform="translate(67.996,60.000) scale(0.000879,-0.000879)" fill="#C8D8C0" />
    <path d="M197 1493H1083V1323H399V881H1053V711H399V170H1102V0H197Z" transform="translate(69.480,60.000) scale(0.000879,-0.000879)" fill="#C8D8C0" />
    <path d="M1012 1442V1237Q920 1296 827.5 1326.0Q735 1356 641 1356Q498 1356 415.0 1289.5Q332 1223 332 1110Q332 1011 386.5 959.0Q441 907 590 872L696 848Q906 799 1002.0 694.0Q1098 589 1098 408Q1098 195 966.0 83.0Q834 -29 582 -29Q477 -29 371.0 -6.5Q265 16 158 61V276Q273 203 375.5 169.0Q478 135 582 135Q735 135 820.0 203.5Q905 272 905 395Q905 507 846.5 566.0Q788 625 643 657L535 682Q327 729 233.0 824.0Q139 919 139 1079Q139 1279 273.5 1399.5Q408 1520 631 1520Q717 1520 812.0 1500.5Q907 1481 1012 1442Z" transform="translate(70.964,60.000) scale(0.000879,-0.000879)" fill="#C8D8C0" />
    <path d="M137 1493H340V881H893V1493H1096V0H893V711H340V0H137Z" transform="translate(72.447,60.000) scale(0.000879,-0.000879)" fill="#C8D8C0" />
  </g>
    <g opacity="0.6">
    <path d="M1012 1442V1237Q920 1296 827.5 1326.0Q735 1356 641 1356Q498 1356 415.0 1289.5Q332 1223 332 1110Q332 1011 386.5 959.0Q441 907 590 872L696 848Q906 799 1002.0 694.0Q1098 589 1098 408Q1098 195 966.0 83.0Q834 -29 582 -29Q477 -29 371.0 -6.5Q265 16 158 61V276Q273 203 375.5 169.0Q478 135 582 135Q735 135 820.0 203.5Q905 272 905 395Q905 507 846.5 566.0Q788 625 643 657L535 682Q327 729 233.0 824.0Q139 919 139 1079Q139 1279 273.5 1399.5Q408 1520 631 1520Q717 1520 812.0 1500.5Q907 1481 1012 1442Z" transform="translate(65.672,76.500) scale(0.000977,-0.000977)" fill="#C8D8C0" />
    <path d="M1073 53Q996 12 915.0 -8.5Q834 -29 743 -29Q456 -29 297.5 174.0Q139 377 139 745Q139 1111 298.5 1315.5Q458 1520 743 1520Q834 1520 915.0 1499.5Q996 1479 1073 1438V1231Q999 1292 914.0 1324.0Q829 1356 743 1356Q546 1356 448.0 1204.0Q350 1052 350 745Q350 439 448.0 287.0Q546 135 743 135Q831 135 915.5 167.0Q1000 199 1073 260Z" transform="translate(67.676,76.500) scale(0.000977,-0.000977)" fill="#C8D8C0" />
    <path d="M616 1315 403 551H829ZM494 1493H739L1196 0H987L877 389H354L246 0H37Z" transform="translate(69.680,76.500) scale(0.000977,-0.000977)" fill="#C8D8C0" />
    <path d="M139 1493H395L899 264V1493H1094V0H838L334 1229V0H139Z" transform="translate(71.684,76.500) scale(0.000977,-0.000977)" fill="#C8D8C0" />
  </g>
  <g opacity="0.6">
    <path d="M215 1493H418V170H1139V0H215Z" transform="translate(29.032,61.800) scale(0.000977,-0.000977)" fill="#C8D8C0" />
    <path d="M905 745Q905 1074 837.5 1215.0Q770 1356 616 1356Q463 1356 395.5 1215.0Q328 1074 328 745Q328 417 395.5 276.0Q463 135 616 135Q770 135 837.5 275.5Q905 416 905 745ZM1116 745Q1116 355 992.5 163.0Q869 -29 616 -29Q363 -29 240.0 162.0Q117 353 117 745Q117 1136 240.5 1328.0Q364 1520 616 1520Q869 1520 992.5 1328.0Q1116 1136 1116 745Z" transform="translate(31.036,61.800) scale(0.000977,-0.000977)" fill="#C8D8C0" />
    <path d="M616 1315 403 551H829ZM494 1493H739L1196 0H987L877 389H354L246 0H37Z" transform="translate(33.040,61.800) scale(0.000977,-0.000977)" fill="#C8D8C0" />
    <path d="M436 166Q691 166 792.0 291.5Q893 417 893 745Q893 1076 792.5 1201.5Q692 1327 436 1327H340V166ZM440 1493Q782 1493 944.0 1311.0Q1106 1129 1106 745Q1106 363 944.0 181.5Q782 0 440 0H137V1493Z" transform="translate(35.044,61.800) scale(0.000977,-0.000977)" fill="#C8D8C0" />
  </g>
  <g opacity="0.6">
    <path d="M760 705Q838 685 893.0 629.5Q948 574 1030 408L1233 0H1016L838 377Q761 538 699.5 584.5Q638 631 539 631H346V0H143V1493H559Q805 1493 936.0 1382.0Q1067 1271 1067 1061Q1067 913 986.5 819.5Q906 726 760 705ZM346 1327V797H567Q712 797 783.0 862.0Q854 927 854 1061Q854 1190 778.5 1258.5Q703 1327 559 1327Z" transform="translate(46.234,61.800) scale(0.000977,-0.000977)" fill="#C8D8C0" />
    <path d="M1012 1442V1237Q920 1296 827.5 1326.0Q735 1356 641 1356Q498 1356 415.0 1289.5Q332 1223 332 1110Q332 1011 386.5 959.0Q441 907 590 872L696 848Q906 799 1002.0 694.0Q1098 589 1098 408Q1098 195 966.0 83.0Q834 -29 582 -29Q477 -29 371.0 -6.5Q265 16 158 61V276Q273 203 375.5 169.0Q478 135 582 135Q735 135 820.0 203.5Q905 272 905 395Q905 507 846.5 566.0Q788 625 643 657L535 682Q327 729 233.0 824.0Q139 919 139 1079Q139 1279 273.5 1399.5Q408 1520 631 1520Q717 1520 812.0 1500.5Q907 1481 1012 1442Z" transform="translate(48.038,61.800) scale(0.000977,-0.000977)" fill="#C8D8C0" />
    <path d="M47 1493H1186V1323H719V0H516V1323H47Z" transform="translate(49.842,61.800) scale(0.000977,-0.000977)" fill="#C8D8C0" />
  </g>

  <!-- RGB knob sub-labels — Level 3, voice-colored silkscreen -->
  <g opacity="0.6">
    <path d="M807 705Q851 696 883.5 663.5Q916 631 963 537L1233 0H909L729 377Q721 393 708 421Q629 590 522 590H428V0H133V1493H559Q847 1493 972.5 1391.0Q1098 1289 1098 1059Q1098 905 1023.0 814.0Q948 723 807 705ZM428 1245V838H567Q688 838 740.5 885.5Q793 933 793 1042Q793 1151 741.0 1198.0Q689 1245 567 1245Z" transform="translate(6.488,67.200) scale(0.000830,-0.000830)" fill="#C44B4F" />
  </g>
  <g opacity="0.6">
    <path d="M872 270V555H670V803H1130V119Q1045 46 942.5 8.5Q840 -29 723 -29Q433 -29 275.0 172.5Q117 374 117 745Q117 1122 276.5 1321.0Q436 1520 737 1520Q827 1520 914.0 1494.5Q1001 1469 1077 1421V1094Q1015 1174 934.5 1214.5Q854 1255 758 1255Q590 1255 507.0 1128.5Q424 1002 424 745Q424 496 504.0 366.0Q584 236 737 236Q783 236 817.0 244.5Q851 253 872 270Z" transform="translate(6.488,79.200) scale(0.000830,-0.000830)" fill="#4B9E5B" />
  </g>
  <g opacity="0.6">
    <path d="M410 678V236H606Q747 236 803.5 284.0Q860 332 860 451Q860 572 801.0 625.0Q742 678 606 678ZM410 1260V913H606Q718 913 765.5 953.0Q813 993 813 1085Q813 1177 764.5 1218.5Q716 1260 606 1260ZM125 1495H606Q855 1495 980.5 1400.5Q1106 1306 1106 1118Q1106 974 1032.0 893.0Q958 812 815 799Q986 782 1072.5 684.0Q1159 586 1159 410Q1159 194 1029.0 97.0Q899 0 606 0H125Z" transform="translate(6.488,91.200) scale(0.000830,-0.000830)" fill="#4B6EC4" />
  </g>

  <!-- I/O section header silkscreen — raised to match CV inputs at y=98 -->
  <line x1="4" y1="93.0" x2="78" y2="93.0" stroke="#C8D8C0" stroke-width="0.15" opacity="0.25" />

  <!-- CV input labels — Level 3 port labels, aligned to new y=98 pad positions -->
    <g opacity="0.5">
    <path d="M760 705Q838 685 893.0 629.5Q948 574 1030 408L1233 0H1016L838 377Q761 538 699.5 584.5Q638 631 539 631H346V0H143V1493H559Q805 1493 936.0 1382.0Q1067 1271 1067 1061Q1067 913 986.5 819.5Q906 726 760 705ZM346 1327V797H567Q712 797 783.0 862.0Q854 927 854 1061Q854 1190 778.5 1258.5Q703 1327 559 1327Z" transform="translate(22.944,76.500) scale(0.000732,-0.000732)" fill="#C8D8C0" />
    <path d="M1073 53Q996 12 915.0 -8.5Q834 -29 743 -29Q456 -29 297.5 174.0Q139 377 139 745Q139 1111 298.5 1315.5Q458 1520 743 1520Q834 1520 915.0 1499.5Q996 1479 1073 1438V1231Q999 1292 914.0 1324.0Q829 1356 743 1356Q546 1356 448.0 1204.0Q350 1052 350 745Q350 439 448.0 287.0Q546 135 743 135Q831 135 915.5 167.0Q1000 199 1073 260Z" transform="translate(25.750,76.500) scale(0.000732,-0.000732)" fill="#C8D8C0" />
    <path d="M616 170 967 1493H1176L739 0H494L57 1493H266Z" transform="translate(27.153,76.500) scale(0.000732,-0.000732)" fill="#C8D8C0" />
  </g>
    <g opacity="0.5">
    <path d="M1104 123Q1023 48 921.5 9.5Q820 -29 702 -29Q418 -29 260.0 174.5Q102 378 102 745Q102 1111 262.0 1315.5Q422 1520 707 1520Q801 1520 887.0 1493.5Q973 1467 1053 1413V1206Q972 1283 887.0 1319.5Q802 1356 707 1356Q510 1356 411.5 1203.5Q313 1051 313 745Q313 434 408.5 284.5Q504 135 702 135Q769 135 819.5 150.5Q870 166 911 199V600H694V766H1104Z" transform="translate(34.944,76.500) scale(0.000732,-0.000732)" fill="#C8D8C0" />
    <path d="M1073 53Q996 12 915.0 -8.5Q834 -29 743 -29Q456 -29 297.5 174.0Q139 377 139 745Q139 1111 298.5 1315.5Q458 1520 743 1520Q834 1520 915.0 1499.5Q996 1479 1073 1438V1231Q999 1292 914.0 1324.0Q829 1356 743 1356Q546 1356 448.0 1204.0Q350 1052 350 745Q350 439 448.0 287.0Q546 135 743 135Q831 135 915.5 167.0Q1000 199 1073 260Z" transform="translate(37.750,76.500) scale(0.000732,-0.000732)" fill="#C8D8C0" />
    <path d="M616 170 967 1493H1176L739 0H494L57 1493H266Z" transform="translate(39.153,76.500) scale(0.000732,-0.000732)" fill="#C8D8C0" />
  </g>
    <g opacity="0.5">
    <path d="M369 713V166H608Q784 166 859.0 227.5Q934 289 934 430Q934 576 855.0 644.5Q776 713 608 713ZM369 1327V877H604Q750 877 815.5 933.0Q881 989 881 1114Q881 1227 816.5 1277.0Q752 1327 604 1327ZM166 1493H608Q837 1493 961.0 1394.0Q1085 1295 1085 1114Q1085 977 1019.5 898.0Q954 819 823 799Q970 777 1053.5 673.5Q1137 570 1137 410Q1137 207 1004.0 103.5Q871 0 608 0H166Z" transform="translate(48.084,76.500) scale(0.000732,-0.000732)" fill="#C8D8C0" />
    <path d="M1073 53Q996 12 915.0 -8.5Q834 -29 743 -29Q456 -29 297.5 174.0Q139 377 139 745Q139 1111 298.5 1315.5Q458 1520 743 1520Q834 1520 915.0 1499.5Q996 1479 1073 1438V1231Q999 1292 914.0 1324.0Q829 1356 743 1356Q546 1356 448.0 1204.0Q350 1052 350 745Q350 439 448.0 287.0Q546 135 743 135Q831 135 915.5 167.0Q1000 199 1073 260Z" transform="translate(50.890,76.500) scale(0.000732,-0.000732)" fill="#C8D8C0" />
    <path d="M616 170 967 1493H1176L739 0H494L57 1493H266Z" transform="translate(52.293,76.500) scale(0.000732,-0.000732)" fill="#C8D8C0" />
  </g>

  <!-- Clock/Reset labels — Level 3, matching tracking -->
    <g opacity="0.5">
    <path d="M1073 53Q996 12 915.0 -8.5Q834 -29 743 -29Q456 -29 297.5 174.0Q139 377 139 745Q139 1111 298.5 1315.5Q458 1520 743 1520Q834 1520 915.0 1499.5Q996 1479 1073 1438V1231Q999 1292 914.0 1324.0Q829 1356 743 1356Q546 1356 448.0 1204.0Q350 1052 350 745Q350 439 448.0 287.0Q546 135 743 135Q831 135 915.5 167.0Q1000 199 1073 260Z" transform="translate(10.145,110.000) scale(0.000732,-0.000732)" fill="#C8D8C0" />
    <path d="M215 1493H418V170H1139V0H215Z" transform="translate(11.548,110.000) scale(0.000732,-0.000732)" fill="#C8D8C0" />
    <path d="M137 1493H340V829L971 1493H1208L627 883L1225 0H981L494 748L340 584V0H137Z" transform="translate(12.952,110.000) scale(0.000732,-0.000732)" fill="#C8D8C0" />
  </g>
    <g opacity="0.5">
    <path d="M760 705Q838 685 893.0 629.5Q948 574 1030 408L1233 0H1016L838 377Q761 538 699.5 584.5Q638 631 539 631H346V0H143V1493H559Q805 1493 936.0 1382.0Q1067 1271 1067 1061Q1067 913 986.5 819.5Q906 726 760 705ZM346 1327V797H567Q712 797 783.0 862.0Q854 927 854 1061Q854 1190 778.5 1258.5Q703 1327 559 1327Z" transform="translate(22.145,110.000) scale(0.000732,-0.000732)" fill="#C8D8C0" />
    <path d="M1012 1442V1237Q920 1296 827.5 1326.0Q735 1356 641 1356Q498 1356 415.0 1289.5Q332 1223 332 1110Q332 1011 386.5 959.0Q441 907 590 872L696 848Q906 799 1002.0 694.0Q1098 589 1098 408Q1098 195 966.0 83.0Q834 -29 582 -29Q477 -29 371.0 -6.5Q265 16 158 61V276Q273 203 375.5 169.0Q478 135 582 135Q735 135 820.0 203.5Q905 272 905 395Q905 507 846.5 566.0Q788 625 643 657L535 682Q327 729 233.0 824.0Q139 919 139 1079Q139 1279 273.5 1399.5Q408 1520 631 1520Q717 1520 812.0 1500.5Q907 1481 1012 1442Z" transform="translate(23.548,110.000) scale(0.000732,-0.000732)" fill="#C8D8C0" />
    <path d="M47 1493H1186V1323H719V0H516V1323H47Z" transform="translate(24.952,110.000) scale(0.000732,-0.000732)" fill="#C8D8C0" />
  </g>

  <!-- Output section headers — Level 2, staggered above port rows -->
    <g opacity="0.55">
    <path d="M1104 123Q1023 48 921.5 9.5Q820 -29 702 -29Q418 -29 260.0 174.5Q102 378 102 745Q102 1111 262.0 1315.5Q422 1520 707 1520Q801 1520 887.0 1493.5Q973 1467 1053 1413V1206Q972 1283 887.0 1319.5Q802 1356 707 1356Q510 1356 411.5 1203.5Q313 1051 313 745Q313 434 408.5 284.5Q504 135 702 135Q769 135 819.5 150.5Q870 166 911 199V600H694V766H1104Z" transform="translate(66.033,93.000) scale(0.000830,-0.000830)" fill="#C8D8C0" />
    <path d="M616 1315 403 551H829ZM494 1493H739L1196 0H987L877 389H354L246 0H37Z" transform="translate(67.857,93.000) scale(0.000830,-0.000830)" fill="#C8D8C0" />
    <path d="M47 1493H1186V1323H719V0H516V1323H47Z" transform="translate(69.680,93.000) scale(0.000830,-0.000830)" fill="#C8D8C0" />
    <path d="M197 1493H1083V1323H399V881H1053V711H399V170H1102V0H197Z" transform="translate(71.503,93.000) scale(0.000830,-0.000830)" fill="#C8D8C0" />
  </g>
    <g opacity="0.55">
    <path d="M1073 53Q996 12 915.0 -8.5Q834 -29 743 -29Q456 -29 297.5 174.0Q139 377 139 745Q139 1111 298.5 1315.5Q458 1520 743 1520Q834 1520 915.0 1499.5Q996 1479 1073 1438V1231Q999 1292 914.0 1324.0Q829 1356 743 1356Q546 1356 448.0 1204.0Q350 1052 350 745Q350 439 448.0 287.0Q546 135 743 135Q831 135 915.5 167.0Q1000 199 1073 260Z" transform="translate(55.377,93.000) scale(0.000830,-0.000830)" fill="#C8D8C0" />
    <path d="M616 170 967 1493H1176L739 0H494L57 1493H266Z" transform="translate(57.600,93.000) scale(0.000830,-0.000830)" fill="#C8D8C0" />
  </g>
  <!-- Thin connecting line between CV and GATE headers -->
  <line x1="60" y1="92.8" x2="65" y2="92.3" stroke="#C8D8C0" stroke-width="0.12" opacity="0.2" />

  <!-- Gate R/G/B voice indicators — Level 3, bold, voice-colored -->
    <g opacity="0.55">
    <path d="M807 705Q851 696 883.5 663.5Q916 631 963 537L1233 0H909L729 377Q721 393 708 421Q629 590 522 590H428V0H133V1493H559Q847 1493 972.5 1391.0Q1098 1289 1098 1059Q1098 905 1023.0 814.0Q948 723 807 705ZM428 1245V838H567Q688 838 740.5 885.5Q793 933 793 1042Q793 1151 741.0 1198.0Q689 1245 567 1245Z" transform="translate(73.048,101.000) scale(0.000732,-0.000732)" fill="#C44B4F" />
  </g>
    <g opacity="0.55">
    <path d="M872 270V555H670V803H1130V119Q1045 46 942.5 8.5Q840 -29 723 -29Q433 -29 275.0 172.5Q117 374 117 745Q117 1122 276.5 1321.0Q436 1520 737 1520Q827 1520 914.0 1494.5Q1001 1469 1077 1421V1094Q1015 1174 934.5 1214.5Q854 1255 758 1255Q590 1255 507.0 1128.5Q424 1002 424 745Q424 496 504.0 366.0Q584 236 737 236Q783 236 817.0 244.5Q851 253 872 270Z" transform="translate(73.048,111.000) scale(0.000732,-0.000732)" fill="#4B9E5B" />
  </g>
    <g opacity="0.55">
    <path d="M410 678V236H606Q747 236 803.5 284.0Q860 332 860 451Q860 572 801.0 625.0Q742 678 606 678ZM410 1260V913H606Q718 913 765.5 953.0Q813 993 813 1085Q813 1177 764.5 1218.5Q716 1260 606 1260ZM125 1495H606Q855 1495 980.5 1400.5Q1106 1306 1106 1118Q1106 974 1032.0 893.0Q958 812 815 799Q986 782 1072.5 684.0Q1159 586 1159 410Q1159 194 1029.0 97.0Q899 0 606 0H125Z" transform="translate(73.048,121.500) scale(0.000732,-0.000732)" fill="#4B6EC4" />
  </g>

  <!-- CV R/G/B voice indicators — matching gate indicators -->
    <g opacity="0.55">
    <path d="M807 705Q851 696 883.5 663.5Q916 631 963 537L1233 0H909L729 377Q721 393 708 421Q629 590 522 590H428V0H133V1493H559Q847 1493 972.5 1391.0Q1098 1289 1098 1059Q1098 905 1023.0 814.0Q948 723 807 705ZM428 1245V838H567Q688 838 740.5 885.5Q793 933 793 1042Q793 1151 741.0 1198.0Q689 1245 567 1245Z" transform="translate(52.548,101.000) scale(0.000732,-0.000732)" fill="#C44B4F" />
  </g>
    <g opacity="0.55">
    <path d="M872 270V555H670V803H1130V119Q1045 46 942.5 8.5Q840 -29 723 -29Q433 -29 275.0 172.5Q117 374 117 745Q117 1122 276.5 1321.0Q436 1520 737 1520Q827 1520 914.0 1494.5Q1001 1469 1077 1421V1094Q1015 1174 934.5 1214.5Q854 1255 758 1255Q590 1255 507.0 1128.5Q424 1002 424 745Q424 496 504.0 366.0Q584 236 737 236Q783 236 817.0 244.5Q851 253 872 270Z" transform="translate(52.548,111.000) scale(0.000732,-0.000732)" fill="#4B9E5B" />
  </g>
    <g opacity="0.55">
    <path d="M410 678V236H606Q747 236 803.5 284.0Q860 332 860 451Q860 572 801.0 625.0Q742 678 606 678ZM410 1260V913H606Q718 913 765.5 953.0Q813 993 813 1085Q813 1177 764.5 1218.5Q716 1260 606 1260ZM125 1495H606Q855 1495 980.5 1400.5Q1106 1306 1106 1118Q1106 974 1032.0 893.0Q958 812 815 799Q986 782 1072.5 684.0Q1159 586 1159 410Q1159 194 1029.0 97.0Q899 0 606 0H125Z" transform="translate(52.548,121.500) scale(0.000732,-0.000732)" fill="#4B6EC4" />
  </g>

  <!-- Position + Trigger labels — Level 3, tracked -->
    <g opacity="0.45">
    <path d="M197 1493H1083V1323H399V881H1053V711H399V170H1102V0H197Z" transform="translate(30.476,105.000) scale(0.000684,-0.000684)" fill="#C8D8C0" />
    <path d="M905 745Q905 1074 837.5 1215.0Q770 1356 616 1356Q463 1356 395.5 1215.0Q328 1074 328 745Q328 417 395.5 276.0Q463 135 616 135Q770 135 837.5 275.5Q905 416 905 745ZM1116 745Q1116 355 992.5 163.0Q869 -29 616 -29Q363 -29 240.0 162.0Q117 353 117 745Q117 1136 240.5 1328.0Q364 1520 616 1520Q869 1520 992.5 1328.0Q1116 1136 1116 745Z" transform="translate(32.219,105.000) scale(0.000684,-0.000684)" fill="#C8D8C0" />
    <path d="M215 1493H418V170H1139V0H215Z" transform="translate(33.961,105.000) scale(0.000684,-0.000684)" fill="#C8D8C0" />
  </g>
    <g opacity="0.45">
    <path d="M197 1493H1083V1323H399V881H1053V711H399V170H1102V0H197Z" transform="translate(40.836,105.000) scale(0.000684,-0.000684)" fill="#C8D8C0" />
    <path d="M905 745Q905 1074 837.5 1215.0Q770 1356 616 1356Q463 1356 395.5 1215.0Q328 1074 328 745Q328 417 395.5 276.0Q463 135 616 135Q770 135 837.5 275.5Q905 416 905 745ZM1116 745Q1116 355 992.5 163.0Q869 -29 616 -29Q363 -29 240.0 162.0Q117 353 117 745Q117 1136 240.5 1328.0Q364 1520 616 1520Q869 1520 992.5 1328.0Q1116 1136 1116 745Z" transform="translate(42.579,105.000) scale(0.000684,-0.000684)" fill="#C8D8C0" />
    <path d="M233 1493H1112V1323H436V883H1049V713H436V0H233Z" transform="translate(44.321,105.000) scale(0.000684,-0.000684)" fill="#C8D8C0" />
  </g>
    <g opacity="0.5">
    <path d="M1206 0H901L616 494L332 0H27L465 758L39 1493H344L616 1018L889 1493H1194L770 758Z" transform="translate(32.158,115.500) scale(0.000781,-0.000781)" fill="#C8D8C0" />
  </g>
    <g opacity="0.5">
    <path d="M8 1493H326L616 893L907 1493H1225L764 588V0H469V588Z" transform="translate(42.518,115.500) scale(0.000781,-0.000781)" fill="#C8D8C0" />
  </g>


  <!-- ── SILKSCREEN IC OUTLINES (decorative component shapes) ── -->
  <g stroke="#C8D8C0" fill="none" stroke-width="0.25" opacity="0.2">
    <!-- IC chip near center (image processing logic) -->
    <rect x="35" y="84" width="12" height="6" rx="0.3" />
    <!-- IC pin 1 dot -->
    <circle cx="36.5" cy="85.5" r="0.4" fill="#C8D8C0" />
    <!-- Small SMD components -->
    <rect x="22" y="86" width="3" height="1.2" rx="0.2" />
    <rect x="22" y="89" width="3" height="1.2" rx="0.2" />
    <rect x="56" y="86" width="3" height="1.2" rx="0.2" />
    <rect x="56" y="89" width="3" height="1.2" rx="0.2" />
    <!-- Capacitor symbols -->
    <rect x="42" y="92" width="1.5" height="2.5" rx="0.2" />
    <rect x="46" y="92" width="1.5" height="2.5" rx="0.2" />
    <!-- Diode outline -->
    <polygon points="30,92 32,93.2 30,94.4" />
    <line x1="32" y1="92" x2="32" y2="94.4" />
  </g>

  <!-- Silkscreen reference designators — angled to follow trace directions -->
  <g opacity="0.2">
    <path d="M147 573V1493H350V481Q350 372 356.0 325.5Q362 279 377 254Q409 195 469.5 165.0Q530 135 616 135Q703 135 763.0 165.0Q823 195 856 254Q871 279 877.0 325.0Q883 371 883 479V1493H1085V573Q1085 344 1056.5 247.5Q1028 151 958 88Q892 29 807.0 0.0Q722 -29 616 -29Q511 -29 426.0 0.0Q341 29 274 88Q205 150 176.0 248.5Q147 347 147 573Z" transform="translate(40.398,83.500) scale(0.000488,-0.000488)" fill="#C8D8C0" />
    <path d="M270 170H584V1311L246 1235V1419L582 1493H784V170H1094V0H270Z" transform="translate(41.000,83.500) scale(0.000488,-0.000488)" fill="#C8D8C0" />
  </g>
  <g transform="rotate(-12, 23.5, 85.5)" opacity="0.15">
    <path d="M760 705Q838 685 893.0 629.5Q948 574 1030 408L1233 0H1016L838 377Q761 538 699.5 584.5Q638 631 539 631H346V0H143V1493H559Q805 1493 936.0 1382.0Q1067 1271 1067 1061Q1067 913 986.5 819.5Q906 726 760 705ZM346 1327V797H567Q712 797 783.0 862.0Q854 927 854 1061Q854 1190 778.5 1258.5Q703 1327 559 1327Z" transform="translate(23.500,85.500) scale(0.000439,-0.000439)" fill="#C8D8C0" />
    <path d="M270 170H584V1311L246 1235V1419L582 1493H784V170H1094V0H270Z" transform="translate(24.042,85.500) scale(0.000439,-0.000439)" fill="#C8D8C0" />
  </g>
  <g transform="rotate(8, 23.5, 88.5)" opacity="0.15">
    <path d="M760 705Q838 685 893.0 629.5Q948 574 1030 408L1233 0H1016L838 377Q761 538 699.5 584.5Q638 631 539 631H346V0H143V1493H559Q805 1493 936.0 1382.0Q1067 1271 1067 1061Q1067 913 986.5 819.5Q906 726 760 705ZM346 1327V797H567Q712 797 783.0 862.0Q854 927 854 1061Q854 1190 778.5 1258.5Q703 1327 559 1327Z" transform="translate(23.500,88.500) scale(0.000439,-0.000439)" fill="#C8D8C0" />
    <path d="M373 170H1059V0H152V170Q339 367 479.0 518.0Q619 669 672 731Q772 853 807.0 928.5Q842 1004 842 1083Q842 1208 768.5 1279.0Q695 1350 567 1350Q476 1350 376.0 1317.0Q276 1284 164 1217V1421Q267 1470 366.5 1495.0Q466 1520 563 1520Q782 1520 915.5 1403.5Q1049 1287 1049 1098Q1049 1002 1004.5 906.0Q960 810 860 694Q804 629 697.5 514.0Q591 399 373 170Z" transform="translate(24.042,88.500) scale(0.000439,-0.000439)" fill="#C8D8C0" />
  </g>
  <g transform="rotate(15, 57.5, 85.5)" opacity="0.15">
    <path d="M760 705Q838 685 893.0 629.5Q948 574 1030 408L1233 0H1016L838 377Q761 538 699.5 584.5Q638 631 539 631H346V0H143V1493H559Q805 1493 936.0 1382.0Q1067 1271 1067 1061Q1067 913 986.5 819.5Q906 726 760 705ZM346 1327V797H567Q712 797 783.0 862.0Q854 927 854 1061Q854 1190 778.5 1258.5Q703 1327 559 1327Z" transform="translate(57.500,85.500) scale(0.000439,-0.000439)" fill="#C8D8C0" />
    <path d="M776 799Q923 760 1001.0 660.5Q1079 561 1079 412Q1079 206 940.5 88.5Q802 -29 557 -29Q454 -29 347.0 -10.0Q240 9 137 45V246Q239 193 338.0 167.0Q437 141 535 141Q701 141 790.0 216.0Q879 291 879 432Q879 562 790.0 638.5Q701 715 549 715H395V881H549Q688 881 766.0 942.0Q844 1003 844 1112Q844 1227 771.5 1288.5Q699 1350 565 1350Q476 1350 381.0 1330.0Q286 1310 182 1270V1456Q303 1488 397.5 1504.0Q492 1520 565 1520Q783 1520 913.5 1410.5Q1044 1301 1044 1120Q1044 997 975.5 915.0Q907 833 776 799Z" transform="translate(58.042,85.500) scale(0.000439,-0.000439)" fill="#C8D8C0" />
  </g>
  <g transform="rotate(-6, 57.5, 88.5)" opacity="0.15">
    <path d="M760 705Q838 685 893.0 629.5Q948 574 1030 408L1233 0H1016L838 377Q761 538 699.5 584.5Q638 631 539 631H346V0H143V1493H559Q805 1493 936.0 1382.0Q1067 1271 1067 1061Q1067 913 986.5 819.5Q906 726 760 705ZM346 1327V797H567Q712 797 783.0 862.0Q854 927 854 1061Q854 1190 778.5 1258.5Q703 1327 559 1327Z" transform="translate(57.500,88.500) scale(0.000439,-0.000439)" fill="#C8D8C0" />
    <path d="M735 1309 264 520H735ZM702 1493H936V520H1135V356H936V0H735V356H102V547Z" transform="translate(58.042,88.500) scale(0.000439,-0.000439)" fill="#C8D8C0" />
  </g>
  <g opacity="0.15">
    <path d="M1073 53Q996 12 915.0 -8.5Q834 -29 743 -29Q456 -29 297.5 174.0Q139 377 139 745Q139 1111 298.5 1315.5Q458 1520 743 1520Q834 1520 915.0 1499.5Q996 1479 1073 1438V1231Q999 1292 914.0 1324.0Q829 1356 743 1356Q546 1356 448.0 1204.0Q350 1052 350 745Q350 439 448.0 287.0Q546 135 743 135Q831 135 915.5 167.0Q1000 199 1073 260Z" transform="translate(42.258,91.500) scale(0.000439,-0.000439)" fill="#C8D8C0" />
    <path d="M270 170H584V1311L246 1235V1419L582 1493H784V170H1094V0H270Z" transform="translate(42.800,91.500) scale(0.000439,-0.000439)" fill="#C8D8C0" />
  </g>
  <g opacity="0.15">
    <path d="M1073 53Q996 12 915.0 -8.5Q834 -29 743 -29Q456 -29 297.5 174.0Q139 377 139 745Q139 1111 298.5 1315.5Q458 1520 743 1520Q834 1520 915.0 1499.5Q996 1479 1073 1438V1231Q999 1292 914.0 1324.0Q829 1356 743 1356Q546 1356 448.0 1204.0Q350 1052 350 745Q350 439 448.0 287.0Q546 135 743 135Q831 135 915.5 167.0Q1000 199 1073 260Z" transform="translate(46.258,91.500) scale(0.000439,-0.000439)" fill="#C8D8C0" />
    <path d="M373 170H1059V0H152V170Q339 367 479.0 518.0Q619 669 672 731Q772 853 807.0 928.5Q842 1004 842 1083Q842 1208 768.5 1279.0Q695 1350 567 1350Q476 1350 376.0 1317.0Q276 1284 164 1217V1421Q267 1470 366.5 1495.0Q466 1520 563 1520Q782 1520 915.5 1403.5Q1049 1287 1049 1098Q1049 1002 1004.5 906.0Q960 810 860 694Q804 629 697.5 514.0Q591 399 373 170Z" transform="translate(46.800,91.500) scale(0.000439,-0.000439)" fill="#C8D8C0" />
  </g>
  <g opacity="0.15">
    <path d="M436 166Q691 166 792.0 291.5Q893 417 893 745Q893 1076 792.5 1201.5Q692 1327 436 1327H340V166ZM440 1493Q782 1493 944.0 1311.0Q1106 1129 1106 745Q1106 363 944.0 181.5Q782 0 440 0H137V1493Z" transform="translate(30.458,91.500) scale(0.000439,-0.000439)" fill="#C8D8C0" />
    <path d="M270 170H584V1311L246 1235V1419L582 1493H784V170H1094V0H270Z" transform="translate(31.000,91.500) scale(0.000439,-0.000439)" fill="#C8D8C0" />
  </g>

  <!-- ── CREATIVE ABSTRACT SILKSCREEN ART ──────────────────── -->
  <!-- Signal-flow arrow running diagonally across PCB -->
  <g opacity="0.12" stroke="#C8D8C0" fill="none" stroke-width="0.2">
    <path d="M3,125 L14,113 L22,113 L30,107 L38,107" stroke-dasharray="1.5,1" />
    <polygon points="38,105.5 41,107 38,108.5" fill="#C8D8C0" stroke="none" />
  </g>

  <!-- Vertical "IMG→CV" flow text along left edge, rotated 90° -->
  <g transform="rotate(-90, 3.2, 92)" opacity="0.12">
    <path d="M201 1493H1030V1323H717V170H1030V0H201V170H514V1323H201Z" transform="translate(3.200,92.000) scale(0.000415,-0.000415)" fill="#C48B2F" />
    <path d="M86 1493H356L614 733L874 1493H1145V0H958V1319L692 532H539L272 1319V0H86Z" transform="translate(5.212,92.000) scale(0.000415,-0.000415)" fill="#C48B2F" />
    <path d="M1104 123Q1023 48 921.5 9.5Q820 -29 702 -29Q418 -29 260.0 174.5Q102 378 102 745Q102 1111 262.0 1315.5Q422 1520 707 1520Q801 1520 887.0 1493.5Q973 1467 1053 1413V1206Q972 1283 887.0 1319.5Q802 1356 707 1356Q510 1356 411.5 1203.5Q313 1051 313 745Q313 434 408.5 284.5Q504 135 702 135Q769 135 819.5 150.5Q870 166 911 199V600H694V766H1104Z" transform="translate(7.223,92.000) scale(0.000415,-0.000415)" fill="#C48B2F" />
    <path d="M88 961V1143L1145 725V559L88 141V324L938 641Z" transform="translate(9.235,92.000) scale(0.000415,-0.000415)" fill="#C48B2F" />
    <path d="M1073 53Q996 12 915.0 -8.5Q834 -29 743 -29Q456 -29 297.5 174.0Q139 377 139 745Q139 1111 298.5 1315.5Q458 1520 743 1520Q834 1520 915.0 1499.5Q996 1479 1073 1438V1231Q999 1292 914.0 1324.0Q829 1356 743 1356Q546 1356 448.0 1204.0Q350 1052 350 745Q350 439 448.0 287.0Q546 135 743 135Q831 135 915.5 167.0Q1000 199 1073 260Z" transform="translate(11.247,92.000) scale(0.000415,-0.000415)" fill="#C48B2F" />
    <path d="M616 170 967 1493H1176L739 0H494L57 1493H266Z" transform="translate(13.259,92.000) scale(0.000415,-0.000415)" fill="#C48B2F" />
  </g>

  <!-- Abstract waveform silkscreen art near bottom — sine/saw/square hint -->
  <g stroke="#C8D8C0" fill="none" stroke-width="0.18" opacity="0.1" transform="translate(14, 122)">
    <path d="M0,0 Q1.5,-2 3,0 Q4.5,2 6,0 Q7.5,-2 9,0" />
    <path d="M12,0 L13.5,-2 L13.5,2 L15,-2 L15,2 L16.5,0" />
    <path d="M19,1 L19,-1 L21,-1 L21,1 L23,1 L23,-1 L25,-1 L25,1" />
  </g>

  <!-- Scattered PCB art: tiny eye icon near camera trace (nod to computer vision) -->
  <g transform="translate(40.64, 79)" opacity="0.08" fill="none" stroke="#C48B2F" stroke-width="0.25">
    <ellipse cx="0" cy="0" rx="2.5" ry="1.4" />
    <circle cx="0" cy="0" r="0.7" fill="#C48B2F" />
  </g>

  <!-- Crosshair registration marks at PCB corners (real PCB aesthetic) -->
  <g stroke="#C8D8C0" stroke-width="0.15" opacity="0.15">
    <line x1="4" y1="60" x2="7" y2="60" /><line x1="5.5" y1="58.5" x2="5.5" y2="61.5" />
    <circle cx="5.5" cy="60" r="0.8" fill="none" />
    <line x1="74.28" y1="60" x2="77.28" y2="60" /><line x1="75.78" y1="58.5" x2="75.78" y2="61.5" />
    <circle cx="75.78" cy="60" r="0.8" fill="none" />
  </g>


  <!-- ── PCB MOUNTING HOLES (corner hardware) ───────────────── -->
  <g fill="#0A0F08" stroke="#8B6914" stroke-width="0.3" opacity="0.3">
    <circle cx="5" cy="61" r="1.5" />
    <circle cx="76.28" cy="61" r="1.5" />
    <circle cx="5" cy="123" r="1.5" />
    <circle cx="76.28" cy="123" r="1.5" />
  </g>


  <!-- ═══════════════════════════════════════════════════════════ -->
  <!-- BOTTOM ACCENT BAR + CORPUS BRAND                            -->
  <!-- ═══════════════════════════════════════════════════════════ -->
  <rect x="0" y="126.9" width="81.28" height="1.6" fill="url(#amberPhosphor)" />

  <!-- CORPUS brand — wide-tracked silkscreen, premium spacing -->
    <g opacity="0.18">
    <path d="M0 1493H197L340 281L510 1083H721L893 279L1036 1493H1233L1010 0H819L616 887L414 0H223Z" transform="translate(25.017,125.500) scale(0.000977,-0.000977)" fill="#C8D8C0" />
    <path d="M197 1493H1083V1323H399V881H1053V711H399V170H1102V0H197Z" transform="translate(28.022,125.500) scale(0.000977,-0.000977)" fill="#C8D8C0" />
    <path d="M201 1493H1030V1323H717V170H1030V0H201V170H514V1323H201Z" transform="translate(31.026,125.500) scale(0.000977,-0.000977)" fill="#C8D8C0" />
    <path d="M760 705Q838 685 893.0 629.5Q948 574 1030 408L1233 0H1016L838 377Q761 538 699.5 584.5Q638 631 539 631H346V0H143V1493H559Q805 1493 936.0 1382.0Q1067 1271 1067 1061Q1067 913 986.5 819.5Q906 726 760 705ZM346 1327V797H567Q712 797 783.0 862.0Q854 927 854 1061Q854 1190 778.5 1258.5Q703 1327 559 1327Z" transform="translate(34.030,125.500) scale(0.000977,-0.000977)" fill="#C8D8C0" />
    <path d="M436 166Q691 166 792.0 291.5Q893 417 893 745Q893 1076 792.5 1201.5Q692 1327 436 1327H340V166ZM440 1493Q782 1493 944.0 1311.0Q1106 1129 1106 745Q1106 363 944.0 181.5Q782 0 440 0H137V1493Z" transform="translate(37.034,125.500) scale(0.000977,-0.000977)" fill="#C8D8C0" />
    <path d="M1012 1442V1237Q920 1296 827.5 1326.0Q735 1356 641 1356Q498 1356 415.0 1289.5Q332 1223 332 1110Q332 1011 386.5 959.0Q441 907 590 872L696 848Q906 799 1002.0 694.0Q1098 589 1098 408Q1098 195 966.0 83.0Q834 -29 582 -29Q477 -29 371.0 -6.5Q265 16 158 61V276Q273 203 375.5 169.0Q478 135 582 135Q735 135 820.0 203.5Q905 272 905 395Q905 507 846.5 566.0Q788 625 643 657L535 682Q327 729 233.0 824.0Q139 919 139 1079Q139 1279 273.5 1399.5Q408 1520 631 1520Q717 1520 812.0 1500.5Q907 1481 1012 1442Z" transform="translate(40.038,125.500) scale(0.000977,-0.000977)" fill="#C8D8C0" />
    <path d="M37 1493H252L616 834L979 1493H1196L717 670V0H514V670Z" transform="translate(43.042,125.500) scale(0.000977,-0.000977)" fill="#C8D8C0" />
    <path d="M139 1493H395L899 264V1493H1094V0H838L334 1229V0H139Z" transform="translate(46.046,125.500) scale(0.000977,-0.000977)" fill="#C8D8C0" />
    <path d="M47 1493H1186V1323H719V0H516V1323H47Z" transform="translate(49.050,125.500) scale(0.000977,-0.000977)" fill="#C8D8C0" />
    <path d="M137 1493H340V881H893V1493H1096V0H893V711H340V0H137Z" transform="translate(52.054,125.500) scale(0.000977,-0.000977)" fill="#C8D8C0" />
    <path d="M1012 1442V1237Q920 1296 827.5 1326.0Q735 1356 641 1356Q498 1356 415.0 1289.5Q332 1223 332 1110Q332 1011 386.5 959.0Q441 907 590 872L696 848Q906 799 1002.0 694.0Q1098 589 1098 408Q1098 195 966.0 83.0Q834 -29 582 -29Q477 -29 371.0 -6.5Q265 16 158 61V276Q273 203 375.5 169.0Q478 135 582 135Q735 135 820.0 203.5Q905 272 905 395Q905 507 846.5 566.0Q788 625 643 657L535 682Q327 729 233.0 824.0Q139 919 139 1079Q139 1279 273.5 1399.5Q408 1520 631 1520Q717 1520 812.0 1500.5Q907 1481 1012 1442Z" transform="translate(55.058,125.500) scale(0.000977,-0.000977)" fill="#C8D8C0" />
  </g>

  <!-- PCB revision — Level 4 fine print, extra tracking -->
  <g opacity="0.12">
    <path d="M760 705Q838 685 893.0 629.5Q948 574 1030 408L1233 0H1016L838 377Q761 538 699.5 584.5Q638 631 539 631H346V0H143V1493H559Q805 1493 936.0 1382.0Q1067 1271 1067 1061Q1067 913 986.5 819.5Q906 726 760 705ZM346 1327V797H567Q712 797 783.0 862.0Q854 927 854 1061Q854 1190 778.5 1258.5Q703 1327 559 1327Z" transform="translate(67.493,125.500) scale(0.000488,-0.000488)" fill="#C8D8C0" />
    <path d="M197 1493H1083V1323H399V881H1053V711H399V170H1102V0H197Z" transform="translate(68.895,125.500) scale(0.000488,-0.000488)" fill="#C8D8C0" />
    <path d="M616 170 967 1493H1176L739 0H494L57 1493H266Z" transform="translate(70.297,125.500) scale(0.000488,-0.000488)" fill="#C8D8C0" />
    <path d="M270 170H584V1311L246 1235V1419L582 1493H784V170H1094V0H270Z" transform="translate(73.101,125.500) scale(0.000488,-0.000488)" fill="#C8D8C0" />
    <path d="M489 305H741V0H489Z" transform="translate(74.503,125.500) scale(0.000488,-0.000488)" fill="#C8D8C0" />
    <path d="M483 750Q483 805 521.5 845.0Q560 885 614 885Q670 885 710.0 845.0Q750 805 750 750Q750 694 710.5 655.0Q671 616 614 616Q558 616 520.5 654.0Q483 692 483 750ZM616 1360Q475 1360 405.5 1208.0Q336 1056 336 745Q336 435 405.5 283.0Q475 131 616 131Q758 131 827.5 283.0Q897 435 897 745Q897 1056 827.5 1208.0Q758 1360 616 1360ZM616 1520Q855 1520 977.5 1324.0Q1100 1128 1100 745Q1100 363 977.5 167.0Q855 -29 616 -29Q377 -29 255.0 167.0Q133 363 133 745Q133 1128 255.0 1324.0Q377 1520 616 1520Z" transform="translate(75.905,125.500) scale(0.000488,-0.000488)" fill="#C8D8C0" />
  </g>

</svg>
